<?xml version="1.0" standalone="no"?>
<!DOCTYPE svg PUBLIC "-//W3C//DTD SVG 20010904//EN"
 "http://www.w3.org/TR/2001/REC-SVG-20010904/DTD/svg10.dtd">
<svg version="1.0" xmlns="http://www.w3.org/2000/svg"
 width="300.000000pt" height="300.000000pt" viewBox="0 0 300.000000 300.000000"
 preserveAspectRatio="xMidYMid meet">

<g transform="translate(0.000000,300.000000) scale(0.100000,-0.100000)"
fill="#000000" stroke="none">
<path d="M1606 2777 c-85 -104 -146 -242 -146 -331 0 -109 82 -285 162 -347
l33 -26 42 36 c42 37 103 146 129 230 38 125 -8 288 -122 432 -21 27 -44 49
-51 49 -6 0 -27 -19 -47 -43z m95 -99 c98 -134 94 -265 -11 -388 l-30 -35 -31
35 c-110 126 -113 266 -9 393 18 20 36 37 41 37 5 0 23 -19 40 -42z"/>
<path d="M1645 2600 c-8 -13 4 -32 16 -25 12 8 12 35 0 35 -6 0 -13 -4 -16
-10z"/>
<path d="M1635 2493 c-14 -13 -16 -27 -11 -65 7 -52 24 -98 37 -98 12 0 39 79
39 114 0 32 -21 66 -40 66 -5 0 -16 -8 -25 -17z"/>
<path d="M1020 2100 c0 -5 33 -35 73 -66 205 -163 282 -276 321 -474 9 -45 15
-55 36 -61 30 -8 174 -11 182 -4 16 17 -80 326 -129 417 -37 67 -110 148 -134
148 -26 0 -25 -6 17 -100 49 -113 43 -126 -31 -60 -33 29 -85 68 -115 88 -30
19 -85 55 -122 79 -66 42 -98 53 -98 33z"/>
<path d="M2180 2027 c-134 -77 -176 -104 -228 -149 -65 -55 -68 -30 -11 78 38
73 44 104 19 104 -7 0 -39 -26 -72 -57 -49 -47 -70 -79 -113 -168 -29 -60 -62
-139 -73 -175 -40 -125 -51 -165 -47 -169 9 -9 143 -12 179 -4 l39 8 36 105
c69 201 126 266 409 465 22 16 22 35 -1 35 -7 0 -68 -33 -137 -73z"/>
<path d="M705 1381 c-69 -31 -86 -107 -37 -161 19 -22 51 -38 112 -58 81 -26
85 -28 88 -59 8 -79 -138 -87 -168 -9 -7 19 -14 22 -39 18 -24 -3 -31 -9 -31
-27 0 -31 37 -75 76 -91 68 -28 180 -10 215 34 19 25 26 101 13 136 -9 23 -61
51 -134 71 -76 20 -90 29 -90 60 0 51 119 59 142 9 9 -18 19 -24 45 -24 28 0
33 4 33 24 0 50 -75 96 -155 96 -16 0 -48 -9 -70 -19z"/>
<path d="M1141 1373 c-7 -14 -96 -239 -141 -359 -9 -23 -8 -24 29 -24 37 0 40
2 57 45 l17 46 86 -3 86 -3 15 -42 c14 -41 16 -43 56 -43 l42 0 -80 200 -80
200 -39 0 c-26 0 -41 -5 -48 -17z m78 -149 c31 -81 30 -84 -34 -84 -30 0 -55
4 -55 9 0 5 6 26 14 47 41 113 43 114 75 28z"/>
<path d="M1450 1191 l0 -201 35 0 35 0 0 126 c0 70 4 123 9 120 5 -3 41 -60
81 -126 l73 -120 43 0 44 0 0 200 0 200 -35 0 -35 0 0 -128 c0 -71 -3 -132 -7
-135 -3 -4 -43 53 -88 126 -79 128 -83 132 -118 135 l-37 3 0 -200z"/>
<path d="M1969 1363 c-6 -15 -28 -73 -49 -128 -22 -55 -50 -129 -64 -164 -14
-36 -26 -68 -26 -73 0 -4 16 -8 35 -8 33 0 37 4 55 45 l19 45 84 0 84 0 17
-45 c17 -43 20 -45 57 -45 21 0 39 3 38 8 0 4 -35 93 -77 197 l-77 190 -43 3
c-38 3 -43 1 -53 -25z m85 -141 c14 -37 26 -71 26 -75 0 -4 -25 -7 -55 -7 -44
0 -55 3 -55 16 0 25 41 134 50 134 5 0 20 -30 34 -68z"/>
<path d="M2280 1191 l0 -201 40 0 40 0 0 85 c0 77 2 85 19 85 43 0 69 -21 116
-93 49 -75 51 -76 93 -77 23 0 42 4 42 8 0 14 -80 126 -103 144 -19 15 -20 19
-7 28 8 5 20 10 26 10 6 0 21 12 35 26 36 38 34 113 -4 151 -27 27 -30 28
-162 31 l-135 4 0 -201z m231 129 c22 -12 27 -68 7 -88 -7 -7 -42 -12 -85 -12
l-73 0 0 55 0 55 66 0 c36 0 74 -5 85 -10z"/>
</g>
</svg>
